<mxfile host="65bd71144e">
    <diagram name="Page-1" id="8Q_exorKsiVHkm2IuwxY">
        <mxGraphModel dx="643" dy="940" grid="1" gridSize="10" guides="1" tooltips="1" connect="1" arrows="1" fold="1" page="1" pageScale="1" pageWidth="1920" pageHeight="1200" math="0" shadow="0">
            <root>
                <mxCell id="0"/>
                <mxCell id="1" parent="0"/>
                <mxCell id="Xl7MVksDzrgOk_wyiOMZ-4" value="Map Manager" style="swimlane;fontStyle=0;childLayout=stackLayout;horizontal=1;startSize=30;horizontalStack=0;resizeParent=1;resizeParentMax=0;resizeLast=0;collapsible=1;marginBottom=0;whiteSpace=wrap;html=1;" parent="1" vertex="1">
                    <mxGeometry x="15" y="330" width="220" height="180" as="geometry"/>
                </mxCell>
                <mxCell id="Xl7MVksDzrgOk_wyiOMZ-5" value="self.map&amp;nbsp; &amp;nbsp; from &quot;/map&quot;" style="text;strokeColor=none;fillColor=none;align=left;verticalAlign=middle;spacingLeft=4;spacingRight=4;overflow=hidden;points=[[0,0.5],[1,0.5]];portConstraint=eastwest;rotatable=0;whiteSpace=wrap;html=1;" parent="Xl7MVksDzrgOk_wyiOMZ-4" vertex="1">
                    <mxGeometry y="30" width="220" height="30" as="geometry"/>
                </mxCell>
                <mxCell id="Xl7MVksDzrgOk_wyiOMZ-6" value="self.costmap&amp;nbsp; from &quot;/move_base/global_costmap/costmap" style="text;strokeColor=none;fillColor=none;align=left;verticalAlign=middle;spacingLeft=4;spacingRight=4;overflow=hidden;points=[[0,0.5],[1,0.5]];portConstraint=eastwest;rotatable=0;whiteSpace=wrap;html=1;" parent="Xl7MVksDzrgOk_wyiOMZ-4" vertex="1">
                    <mxGeometry y="60" width="220" height="30" as="geometry"/>
                </mxCell>
                <mxCell id="Xl7MVksDzrgOk_wyiOMZ-7" value="get_additional_goals" style="text;strokeColor=none;fillColor=none;align=left;verticalAlign=middle;spacingLeft=4;spacingRight=4;overflow=hidden;points=[[0,0.5],[1,0.5]];portConstraint=eastwest;rotatable=0;whiteSpace=wrap;html=1;" parent="Xl7MVksDzrgOk_wyiOMZ-4" vertex="1">
                    <mxGeometry y="90" width="220" height="30" as="geometry"/>
                </mxCell>
                <mxCell id="Xl7MVksDzrgOk_wyiOMZ-13" value="get_goals" style="text;strokeColor=none;fillColor=none;align=left;verticalAlign=middle;spacingLeft=4;spacingRight=4;overflow=hidden;points=[[0,0.5],[1,0.5]];portConstraint=eastwest;rotatable=0;whiteSpace=wrap;html=1;" parent="Xl7MVksDzrgOk_wyiOMZ-4" vertex="1">
                    <mxGeometry y="120" width="220" height="30" as="geometry"/>
                </mxCell>
                <mxCell id="14" value="searched_space" style="text;strokeColor=none;fillColor=none;align=left;verticalAlign=middle;spacingLeft=4;spacingRight=4;overflow=hidden;points=[[0,0.5],[1,0.5]];portConstraint=eastwest;rotatable=0;whiteSpace=wrap;html=1;" parent="Xl7MVksDzrgOk_wyiOMZ-4" vertex="1">
                    <mxGeometry y="150" width="220" height="30" as="geometry"/>
                </mxCell>
                <mxCell id="Xl7MVksDzrgOk_wyiOMZ-8" value="FaceManager" style="swimlane;fontStyle=0;childLayout=stackLayout;horizontal=1;startSize=30;horizontalStack=0;resizeParent=1;resizeParentMax=0;resizeLast=0;collapsible=1;marginBottom=0;whiteSpace=wrap;html=1;" parent="1" vertex="1">
                    <mxGeometry x="280" y="250" width="220" height="90" as="geometry"/>
                </mxCell>
                <mxCell id="Xl7MVksDzrgOk_wyiOMZ-9" value="self.detected_faces_subscriber" style="text;strokeColor=none;fillColor=none;align=left;verticalAlign=middle;spacingLeft=4;spacingRight=4;overflow=hidden;points=[[0,0.5],[1,0.5]];portConstraint=eastwest;rotatable=0;whiteSpace=wrap;html=1;" parent="Xl7MVksDzrgOk_wyiOMZ-8" vertex="1">
                    <mxGeometry y="30" width="220" height="30" as="geometry"/>
                </mxCell>
                <mxCell id="Xl7MVksDzrgOk_wyiOMZ-10" value="self.detected_faces = []" style="text;strokeColor=none;fillColor=none;align=left;verticalAlign=middle;spacingLeft=4;spacingRight=4;overflow=hidden;points=[[0,0.5],[1,0.5]];portConstraint=eastwest;rotatable=0;whiteSpace=wrap;html=1;" parent="Xl7MVksDzrgOk_wyiOMZ-8" vertex="1">
                    <mxGeometry y="60" width="220" height="30" as="geometry"/>
                </mxCell>
                <mxCell id="Xl7MVksDzrgOk_wyiOMZ-14" value="" style="endArrow=classic;html=1;rounded=0;exitX=0.5;exitY=0;exitDx=0;exitDy=0;entryX=-0.021;entryY=0.9;entryDx=0;entryDy=0;endFill=1;startArrow=none;startFill=0;entryPerimeter=0;" parent="1" source="Xl7MVksDzrgOk_wyiOMZ-4" target="Xl7MVksDzrgOk_wyiOMZ-18" edge="1">
                    <mxGeometry width="50" height="50" relative="1" as="geometry">
                        <mxPoint x="610" y="360" as="sourcePoint"/>
                        <mxPoint x="450" y="116" as="targetPoint"/>
                        <Array as="points">
                            <mxPoint x="140" y="280"/>
                        </Array>
                    </mxGeometry>
                </mxCell>
                <mxCell id="Xl7MVksDzrgOk_wyiOMZ-15" value="Brain" style="swimlane;fontStyle=0;childLayout=stackLayout;horizontal=1;startSize=30;horizontalStack=0;resizeParent=1;resizeParentMax=0;resizeLast=0;collapsible=1;marginBottom=0;whiteSpace=wrap;html=1;" parent="1" vertex="1">
                    <mxGeometry x="520" y="40" width="140" height="150" as="geometry"/>
                </mxCell>
                <mxCell id="Xl7MVksDzrgOk_wyiOMZ-16" value="MapManager" style="text;strokeColor=none;fillColor=none;align=left;verticalAlign=middle;spacingLeft=4;spacingRight=4;overflow=hidden;points=[[0,0.5],[1,0.5]];portConstraint=eastwest;rotatable=0;whiteSpace=wrap;html=1;" parent="Xl7MVksDzrgOk_wyiOMZ-15" vertex="1">
                    <mxGeometry y="30" width="140" height="30" as="geometry"/>
                </mxCell>
                <mxCell id="Xl7MVksDzrgOk_wyiOMZ-17" value="FaceManager" style="text;strokeColor=none;fillColor=none;align=left;verticalAlign=middle;spacingLeft=4;spacingRight=4;overflow=hidden;points=[[0,0.5],[1,0.5]];portConstraint=eastwest;rotatable=0;whiteSpace=wrap;html=1;" parent="Xl7MVksDzrgOk_wyiOMZ-15" vertex="1">
                    <mxGeometry y="60" width="140" height="30" as="geometry"/>
                </mxCell>
                <mxCell id="Xl7MVksDzrgOk_wyiOMZ-18" value="CylinderManager" style="text;strokeColor=none;fillColor=none;align=left;verticalAlign=middle;spacingLeft=4;spacingRight=4;overflow=hidden;points=[[0,0.5],[1,0.5]];portConstraint=eastwest;rotatable=0;whiteSpace=wrap;html=1;" parent="Xl7MVksDzrgOk_wyiOMZ-15" vertex="1">
                    <mxGeometry y="90" width="140" height="30" as="geometry"/>
                </mxCell>
                <mxCell id="18" value="..." style="text;strokeColor=none;fillColor=none;align=left;verticalAlign=middle;spacingLeft=4;spacingRight=4;overflow=hidden;points=[[0,0.5],[1,0.5]];portConstraint=eastwest;rotatable=0;whiteSpace=wrap;html=1;" vertex="1" parent="Xl7MVksDzrgOk_wyiOMZ-15">
                    <mxGeometry y="120" width="140" height="30" as="geometry"/>
                </mxCell>
                <mxCell id="Xl7MVksDzrgOk_wyiOMZ-19" value="FaceDetector" style="swimlane;fontStyle=0;childLayout=stackLayout;horizontal=1;startSize=30;horizontalStack=0;resizeParent=1;resizeParentMax=0;resizeLast=0;collapsible=1;marginBottom=0;whiteSpace=wrap;html=1;" parent="1" vertex="1">
                    <mxGeometry x="280" y="470" width="220" height="120" as="geometry"/>
                </mxCell>
                <mxCell id="Xl7MVksDzrgOk_wyiOMZ-20" value="subsciber /camera/rgb_image_raw" style="text;strokeColor=none;fillColor=none;align=left;verticalAlign=middle;spacingLeft=4;spacingRight=4;overflow=hidden;points=[[0,0.5],[1,0.5]];portConstraint=eastwest;rotatable=0;whiteSpace=wrap;html=1;" parent="Xl7MVksDzrgOk_wyiOMZ-19" vertex="1">
                    <mxGeometry y="30" width="220" height="30" as="geometry"/>
                </mxCell>
                <mxCell id="Xl7MVksDzrgOk_wyiOMZ-21" value="subscriber /camera/depth_image_raw" style="text;strokeColor=none;fillColor=none;align=left;verticalAlign=middle;spacingLeft=4;spacingRight=4;overflow=hidden;points=[[0,0.5],[1,0.5]];portConstraint=eastwest;rotatable=0;whiteSpace=wrap;html=1;" parent="Xl7MVksDzrgOk_wyiOMZ-19" vertex="1">
                    <mxGeometry y="60" width="220" height="30" as="geometry"/>
                </mxCell>
                <mxCell id="Xl7MVksDzrgOk_wyiOMZ-22" value="Item 3" style="text;strokeColor=none;fillColor=none;align=left;verticalAlign=middle;spacingLeft=4;spacingRight=4;overflow=hidden;points=[[0,0.5],[1,0.5]];portConstraint=eastwest;rotatable=0;whiteSpace=wrap;html=1;" parent="Xl7MVksDzrgOk_wyiOMZ-19" vertex="1">
                    <mxGeometry y="90" width="220" height="30" as="geometry"/>
                </mxCell>
                <mxCell id="Xl7MVksDzrgOk_wyiOMZ-23" value="" style="endArrow=classic;html=1;rounded=0;exitX=0.5;exitY=0;exitDx=0;exitDy=0;startArrow=none;startFill=0;endFill=1;entryX=0.495;entryY=1.033;entryDx=0;entryDy=0;entryPerimeter=0;" parent="1" source="Xl7MVksDzrgOk_wyiOMZ-19" target="Xl7MVksDzrgOk_wyiOMZ-10" edge="1">
                    <mxGeometry width="50" height="50" relative="1" as="geometry">
                        <mxPoint x="610" y="360" as="sourcePoint"/>
                        <mxPoint x="389" y="380" as="targetPoint"/>
                    </mxGeometry>
                </mxCell>
                <mxCell id="Xl7MVksDzrgOk_wyiOMZ-24" value="/detected_faces" style="text;html=1;align=center;verticalAlign=middle;resizable=0;points=[];autosize=1;strokeColor=none;fillColor=none;" parent="1" vertex="1">
                    <mxGeometry x="390" y="410" width="110" height="30" as="geometry"/>
                </mxCell>
                <mxCell id="Xl7MVksDzrgOk_wyiOMZ-25" value="" style="endArrow=classic;html=1;rounded=0;exitX=0.5;exitY=0;exitDx=0;exitDy=0;entryX=0;entryY=0.5;entryDx=0;entryDy=0;startArrow=none;startFill=0;endFill=1;" parent="1" source="Xl7MVksDzrgOk_wyiOMZ-8" target="Xl7MVksDzrgOk_wyiOMZ-17" edge="1">
                    <mxGeometry width="50" height="50" relative="1" as="geometry">
                        <mxPoint x="610" y="360" as="sourcePoint"/>
                        <mxPoint x="660" y="310" as="targetPoint"/>
                    </mxGeometry>
                </mxCell>
                <mxCell id="Xl7MVksDzrgOk_wyiOMZ-26" value="CylinderManager" style="swimlane;fontStyle=0;childLayout=stackLayout;horizontal=1;startSize=30;horizontalStack=0;resizeParent=1;resizeParentMax=0;resizeLast=0;collapsible=1;marginBottom=0;whiteSpace=wrap;html=1;" parent="1" vertex="1">
                    <mxGeometry x="530" y="250" width="200" height="90" as="geometry"/>
                </mxCell>
                <mxCell id="Xl7MVksDzrgOk_wyiOMZ-27" value="self.detected_cylinders" style="text;strokeColor=none;fillColor=none;align=left;verticalAlign=middle;spacingLeft=4;spacingRight=4;overflow=hidden;points=[[0,0.5],[1,0.5]];portConstraint=eastwest;rotatable=0;whiteSpace=wrap;html=1;" parent="Xl7MVksDzrgOk_wyiOMZ-26" vertex="1">
                    <mxGeometry y="30" width="200" height="30" as="geometry"/>
                </mxCell>
                <mxCell id="Xl7MVksDzrgOk_wyiOMZ-28" value="self.detected_cylidners_subscriber" style="text;strokeColor=none;fillColor=none;align=left;verticalAlign=middle;spacingLeft=4;spacingRight=4;overflow=hidden;points=[[0,0.5],[1,0.5]];portConstraint=eastwest;rotatable=0;whiteSpace=wrap;html=1;" parent="Xl7MVksDzrgOk_wyiOMZ-26" vertex="1">
                    <mxGeometry y="60" width="200" height="30" as="geometry"/>
                </mxCell>
                <mxCell id="Xl7MVksDzrgOk_wyiOMZ-33" value="" style="endArrow=none;startArrow=classicThin;html=1;rounded=0;entryX=0.455;entryY=-0.033;entryDx=0;entryDy=0;entryPerimeter=0;endFill=0;startFill=1;" parent="1" source="Xl7MVksDzrgOk_wyiOMZ-18" target="Xl7MVksDzrgOk_wyiOMZ-26" edge="1">
                    <mxGeometry width="50" height="50" relative="1" as="geometry">
                        <mxPoint x="610" y="360" as="sourcePoint"/>
                        <mxPoint x="660" y="310" as="targetPoint"/>
                    </mxGeometry>
                </mxCell>
                <mxCell id="Xl7MVksDzrgOk_wyiOMZ-34" value="CylinderDetector" style="swimlane;fontStyle=0;childLayout=stackLayout;horizontal=1;startSize=30;horizontalStack=0;resizeParent=1;resizeParentMax=0;resizeLast=0;collapsible=1;marginBottom=0;whiteSpace=wrap;html=1;" parent="1" vertex="1">
                    <mxGeometry x="550" y="470" width="180" height="90" as="geometry"/>
                </mxCell>
                <mxCell id="Xl7MVksDzrgOk_wyiOMZ-35" value="subscriber /camera/depth/poiints" style="text;strokeColor=none;fillColor=none;align=left;verticalAlign=middle;spacingLeft=4;spacingRight=4;overflow=hidden;points=[[0,0.5],[1,0.5]];portConstraint=eastwest;rotatable=0;whiteSpace=wrap;html=1;" parent="Xl7MVksDzrgOk_wyiOMZ-34" vertex="1">
                    <mxGeometry y="30" width="180" height="60" as="geometry"/>
                </mxCell>
                <mxCell id="Xl7MVksDzrgOk_wyiOMZ-39" value="/unique_cylinder_greet" style="text;html=1;strokeColor=none;fillColor=none;align=center;verticalAlign=middle;whiteSpace=wrap;rounded=0;" parent="1" vertex="1">
                    <mxGeometry x="670" y="410" width="60" height="30" as="geometry"/>
                </mxCell>
                <mxCell id="Xl7MVksDzrgOk_wyiOMZ-63" style="edgeStyle=orthogonalEdgeStyle;rounded=0;orthogonalLoop=1;jettySize=auto;html=1;exitX=0.5;exitY=0;exitDx=0;exitDy=0;entryX=0.864;entryY=1;entryDx=0;entryDy=0;entryPerimeter=0;" parent="1" source="Xl7MVksDzrgOk_wyiOMZ-41" target="Xl7MVksDzrgOk_wyiOMZ-18" edge="1">
                    <mxGeometry relative="1" as="geometry"/>
                </mxCell>
                <mxCell id="Xl7MVksDzrgOk_wyiOMZ-41" value="RingManager" style="swimlane;fontStyle=0;childLayout=stackLayout;horizontal=1;startSize=30;horizontalStack=0;resizeParent=1;resizeParentMax=0;resizeLast=0;collapsible=1;marginBottom=0;whiteSpace=wrap;html=1;" parent="1" vertex="1">
                    <mxGeometry x="780" y="250" width="200" height="90" as="geometry"/>
                </mxCell>
                <mxCell id="Xl7MVksDzrgOk_wyiOMZ-42" value="self.detected_rings" style="text;strokeColor=none;fillColor=none;align=left;verticalAlign=middle;spacingLeft=4;spacingRight=4;overflow=hidden;points=[[0,0.5],[1,0.5]];portConstraint=eastwest;rotatable=0;whiteSpace=wrap;html=1;" parent="Xl7MVksDzrgOk_wyiOMZ-41" vertex="1">
                    <mxGeometry y="30" width="200" height="30" as="geometry"/>
                </mxCell>
                <mxCell id="Xl7MVksDzrgOk_wyiOMZ-43" value="self.detected_rings_subscriber" style="text;strokeColor=none;fillColor=none;align=left;verticalAlign=middle;spacingLeft=4;spacingRight=4;overflow=hidden;points=[[0,0.5],[1,0.5]];portConstraint=eastwest;rotatable=0;whiteSpace=wrap;html=1;" parent="Xl7MVksDzrgOk_wyiOMZ-41" vertex="1">
                    <mxGeometry y="60" width="200" height="30" as="geometry"/>
                </mxCell>
                <mxCell id="Xl7MVksDzrgOk_wyiOMZ-52" style="edgeStyle=orthogonalEdgeStyle;rounded=0;orthogonalLoop=1;jettySize=auto;html=1;exitX=0.5;exitY=0;exitDx=0;exitDy=0;entryX=0.459;entryY=1.033;entryDx=0;entryDy=0;entryPerimeter=0;" parent="1" source="Xl7MVksDzrgOk_wyiOMZ-45" target="Xl7MVksDzrgOk_wyiOMZ-43" edge="1">
                    <mxGeometry relative="1" as="geometry"/>
                </mxCell>
                <mxCell id="Xl7MVksDzrgOk_wyiOMZ-45" value="RingDetector" style="swimlane;fontStyle=0;childLayout=stackLayout;horizontal=1;startSize=30;horizontalStack=0;resizeParent=1;resizeParentMax=0;resizeLast=0;collapsible=1;marginBottom=0;whiteSpace=wrap;html=1;" parent="1" vertex="1">
                    <mxGeometry x="800" y="470" width="180" height="90" as="geometry"/>
                </mxCell>
                <mxCell id="Xl7MVksDzrgOk_wyiOMZ-46" value="subscriber /camera/rgb/image_raw" style="text;strokeColor=none;fillColor=none;align=left;verticalAlign=middle;spacingLeft=4;spacingRight=4;overflow=hidden;points=[[0,0.5],[1,0.5]];portConstraint=eastwest;rotatable=0;whiteSpace=wrap;html=1;" parent="Xl7MVksDzrgOk_wyiOMZ-45" vertex="1">
                    <mxGeometry y="30" width="180" height="30" as="geometry"/>
                </mxCell>
                <mxCell id="Xl7MVksDzrgOk_wyiOMZ-47" value="subscriber /camera/depth/image_raw" style="text;strokeColor=none;fillColor=none;align=left;verticalAlign=middle;spacingLeft=4;spacingRight=4;overflow=hidden;points=[[0,0.5],[1,0.5]];portConstraint=eastwest;rotatable=0;whiteSpace=wrap;html=1;" parent="Xl7MVksDzrgOk_wyiOMZ-45" vertex="1">
                    <mxGeometry y="60" width="180" height="30" as="geometry"/>
                </mxCell>
                <mxCell id="Xl7MVksDzrgOk_wyiOMZ-50" value="/detected_ring_coords&lt;br&gt;" style="text;html=1;strokeColor=none;fillColor=none;align=center;verticalAlign=middle;whiteSpace=wrap;rounded=0;" parent="1" vertex="1">
                    <mxGeometry x="930" y="400" width="60" height="30" as="geometry"/>
                </mxCell>
                <mxCell id="Xl7MVksDzrgOk_wyiOMZ-51" value="" style="endArrow=classic;html=1;rounded=0;exitX=0.421;exitY=-0.033;exitDx=0;exitDy=0;exitPerimeter=0;entryX=0.474;entryY=1;entryDx=0;entryDy=0;entryPerimeter=0;" parent="1" source="Xl7MVksDzrgOk_wyiOMZ-34" target="Xl7MVksDzrgOk_wyiOMZ-28" edge="1">
                    <mxGeometry width="50" height="50" relative="1" as="geometry">
                        <mxPoint x="610" y="360" as="sourcePoint"/>
                        <mxPoint x="660" y="310" as="targetPoint"/>
                    </mxGeometry>
                </mxCell>
                <mxCell id="Xl7MVksDzrgOk_wyiOMZ-62" style="edgeStyle=orthogonalEdgeStyle;rounded=0;orthogonalLoop=1;jettySize=auto;html=1;exitX=0.5;exitY=0;exitDx=0;exitDy=0;" parent="1" source="Xl7MVksDzrgOk_wyiOMZ-53" target="Xl7MVksDzrgOk_wyiOMZ-18" edge="1">
                    <mxGeometry relative="1" as="geometry"/>
                </mxCell>
                <mxCell id="Xl7MVksDzrgOk_wyiOMZ-53" value="GroundRingManager" style="swimlane;fontStyle=0;childLayout=stackLayout;horizontal=1;startSize=30;horizontalStack=0;resizeParent=1;resizeParentMax=0;resizeLast=0;collapsible=1;marginBottom=0;whiteSpace=wrap;html=1;" parent="1" vertex="1">
                    <mxGeometry x="990" y="250" width="230" height="90" as="geometry"/>
                </mxCell>
                <mxCell id="Xl7MVksDzrgOk_wyiOMZ-54" value="self.detected_ground_rings = []" style="text;strokeColor=none;fillColor=none;align=left;verticalAlign=middle;spacingLeft=4;spacingRight=4;overflow=hidden;points=[[0,0.5],[1,0.5]];portConstraint=eastwest;rotatable=0;whiteSpace=wrap;html=1;" parent="Xl7MVksDzrgOk_wyiOMZ-53" vertex="1">
                    <mxGeometry y="30" width="230" height="30" as="geometry"/>
                </mxCell>
                <mxCell id="Xl7MVksDzrgOk_wyiOMZ-55" value="self.detected_ground_rings_subscriber" style="text;strokeColor=none;fillColor=none;align=left;verticalAlign=middle;spacingLeft=4;spacingRight=4;overflow=hidden;points=[[0,0.5],[1,0.5]];portConstraint=eastwest;rotatable=0;whiteSpace=wrap;html=1;" parent="Xl7MVksDzrgOk_wyiOMZ-53" vertex="1">
                    <mxGeometry y="60" width="230" height="30" as="geometry"/>
                </mxCell>
                <mxCell id="Xl7MVksDzrgOk_wyiOMZ-56" style="edgeStyle=orthogonalEdgeStyle;rounded=0;orthogonalLoop=1;jettySize=auto;html=1;exitX=0.5;exitY=0;exitDx=0;exitDy=0;entryX=0.459;entryY=1.033;entryDx=0;entryDy=0;entryPerimeter=0;" parent="1" source="Xl7MVksDzrgOk_wyiOMZ-57" target="Xl7MVksDzrgOk_wyiOMZ-55" edge="1">
                    <mxGeometry relative="1" as="geometry"/>
                </mxCell>
                <mxCell id="Xl7MVksDzrgOk_wyiOMZ-57" value="GroudRingDetector" style="swimlane;fontStyle=0;childLayout=stackLayout;horizontal=1;startSize=30;horizontalStack=0;resizeParent=1;resizeParentMax=0;resizeLast=0;collapsible=1;marginBottom=0;whiteSpace=wrap;html=1;" parent="1" vertex="1">
                    <mxGeometry x="1050" y="470" width="180" height="90" as="geometry"/>
                </mxCell>
                <mxCell id="16" value="/arm_camera/rgb/image_raw" style="text;html=1;strokeColor=none;fillColor=none;align=center;verticalAlign=middle;whiteSpace=wrap;rounded=0;" parent="Xl7MVksDzrgOk_wyiOMZ-57" vertex="1">
                    <mxGeometry y="30" width="180" height="30" as="geometry"/>
                </mxCell>
                <mxCell id="17" value="/arm_camera/depth/image_raw" style="text;html=1;strokeColor=none;fillColor=none;align=center;verticalAlign=middle;whiteSpace=wrap;rounded=0;" parent="Xl7MVksDzrgOk_wyiOMZ-57" vertex="1">
                    <mxGeometry y="60" width="180" height="30" as="geometry"/>
                </mxCell>
                <mxCell id="Xl7MVksDzrgOk_wyiOMZ-61" value="/detected_ground_rings" style="text;html=1;strokeColor=none;fillColor=none;align=center;verticalAlign=middle;whiteSpace=wrap;rounded=0;" parent="1" vertex="1">
                    <mxGeometry x="1180" y="400" width="60" height="30" as="geometry"/>
                </mxCell>
                <mxCell id="2" style="edgeStyle=none;html=1;exitX=0;exitY=0.5;exitDx=0;exitDy=0;endArrow=none;endFill=0;startArrow=classicThin;startFill=1;" parent="1" source="Xl7MVksDzrgOk_wyiOMZ-16" target="3" edge="1">
                    <mxGeometry relative="1" as="geometry">
                        <mxPoint x="190" y="85" as="targetPoint"/>
                    </mxGeometry>
                </mxCell>
                <mxCell id="3" value="ArmManager" style="swimlane;fontStyle=0;childLayout=stackLayout;horizontal=1;startSize=26;fillColor=none;horizontalStack=0;resizeParent=1;resizeParentMax=0;resizeLast=0;collapsible=1;marginBottom=0;html=1;" parent="1" vertex="1">
                    <mxGeometry x="30" y="22" width="190" height="78" as="geometry"/>
                </mxCell>
                <mxCell id="4" value="self.commands" style="text;strokeColor=none;fillColor=none;align=left;verticalAlign=top;spacingLeft=4;spacingRight=4;overflow=hidden;rotatable=0;points=[[0,0.5],[1,0.5]];portConstraint=eastwest;whiteSpace=wrap;html=1;" parent="3" vertex="1">
                    <mxGeometry y="26" width="190" height="26" as="geometry"/>
                </mxCell>
                <mxCell id="5" value="self.arm_movement_publisher" style="text;strokeColor=none;fillColor=none;align=left;verticalAlign=top;spacingLeft=4;spacingRight=4;overflow=hidden;rotatable=0;points=[[0,0.5],[1,0.5]];portConstraint=eastwest;whiteSpace=wrap;html=1;" parent="3" vertex="1">
                    <mxGeometry y="52" width="190" height="26" as="geometry"/>
                </mxCell>
                <mxCell id="7" value="/arm_command" style="text;html=1;align=center;verticalAlign=middle;resizable=0;points=[];autosize=1;strokeColor=none;fillColor=none;" parent="1" vertex="1">
                    <mxGeometry x="310" y="46" width="110" height="30" as="geometry"/>
                </mxCell>
                <mxCell id="9" value="SoundPlayer" style="swimlane;fontStyle=0;childLayout=stackLayout;horizontal=1;startSize=26;fillColor=none;horizontalStack=0;resizeParent=1;resizeParentMax=0;resizeLast=0;collapsible=1;marginBottom=0;html=1;" parent="1" vertex="1">
                    <mxGeometry x="30" y="140" width="170" height="70" as="geometry"/>
                </mxCell>
                <mxCell id="10" value="Component for playing sounds" style="text;strokeColor=none;fillColor=none;align=left;verticalAlign=top;spacingLeft=4;spacingRight=4;overflow=hidden;rotatable=0;points=[[0,0.5],[1,0.5]];portConstraint=eastwest;whiteSpace=wrap;html=1;" parent="9" vertex="1">
                    <mxGeometry y="26" width="170" height="44" as="geometry"/>
                </mxCell>
                <mxCell id="13" style="edgeStyle=none;html=1;exitX=1;exitY=0.5;exitDx=0;exitDy=0;entryX=0;entryY=0.5;entryDx=0;entryDy=0;startArrow=none;startFill=0;endArrow=classic;endFill=1;" parent="1" source="10" target="Xl7MVksDzrgOk_wyiOMZ-17" edge="1">
                    <mxGeometry relative="1" as="geometry"/>
                </mxCell>
            </root>
        </mxGraphModel>
    </diagram>
</mxfile>